<?xml version="1.0" encoding="utf-8"?>
<!-- Generator: Adobe Illustrator 22.0.1, SVG Export Plug-In . SVG Version: 6.00 Build 0)  -->
<svg version="1.1" id="Слой_1" xmlns="http://www.w3.org/2000/svg" xmlns:xlink="http://www.w3.org/1999/xlink" x="0px" y="0px"
	 viewBox="0 0 612 792" style="enable-background:new 0 0 612 792;" xml:space="preserve">
<style type="text/css">
	.st0{fill-rule:evenodd;clip-rule:evenodd;fill:#D24A47;}
	.st1{fill-rule:evenodd;clip-rule:evenodd;fill:none;}
	.st2{fill-rule:evenodd;clip-rule:evenodd;fill:#533236;}
</style>
<path class="st0" d="M298.8,154.7c78.8-56.2,418.3-62.5,304.5-179C542.8,92.1,349.2,47.1,298.8,154.7z"/>
<path class="st0" d="M514.4-168.1c-40.7,31.1-104.9,9.6-147.1,47.6C327.2-84.3,300.5-13,292.7,60.6C610,9.2,567.5-63.2,514.4-168.1z
	 M336.1,25.4c3.1-32,13.5-62.9,29.2-78.7c16.5-16.5,41.7-7.2,57.6-20.7C443.7-28.4,460.3,3.1,336.1,25.4z"/>
<path class="st0" d="M204.5,79.2c21.5-60.3-30.7-194.4,106.7-197.6C243.4-68.7,300.4,17.3,204.5,79.2z"/>
<path class="st0" d="M127.9,159.9c2.2-67.2-100.2-178.7,46.2-233.9C118.5,0.3,209.4,63,127.9,159.9z"/>
<path class="st0" d="M85.7,303.1C62.4,226.9-78.9,135.1,41.9,25.4C16.2,127,127.9,167.8,85.7,303.1z"/>
<path class="st0" d="M86.6,457.7C38.8,388.1-127,338.1-39.9,188.9C-33.5,299.7,86.1,307.6,86.6,457.7z"/>
<path class="st0" d="M151.8,630.8C85.6,572.9-82.7,542.2-60.6,389.6C-20.9,498.2,100.8,487.8,151.8,630.8z"/>
<path class="st0" d="M235.6,757c-67.9-31.6-215.4-43.1-233-148C82.1,682.5,196.1,666.7,235.6,757z"/>
<path class="st0" d="M304.7,849.1c-43-12.3-122.6,1.9-157.1-70.3C206.8,819.2,262.4,790.6,304.7,849.1z"/>
<path class="st1" d="M364,916.6c-28.2-2.3-77,14.5-105.7-23.1C299.5,910.2,331.7,887.9,364,916.6z"/>
<path class="st0" d="M422,884.3c29.1-13.6,85.1-8.5,104.6-70.4C488.1,851.8,447.9,833,422,884.3z"/>
<path class="st0" d="M281.2,88.5c16.7-14.7-2.9-11.9-11.4-9.3C-80.6,372,321.2,841,429.3,946.4c9.9,9.6,29.5,8.7,18.6-3.1
	C-82.8,366.9,229.3,134.1,281.2,88.5z"/>
<path class="st2" d="M190,400c46.7,45.8,190.3,62.1,353.6,51.6c118.2-7.6,95.2-31,117.7-103.3c-215.4-8.5-173-2.7-311.8-48.6
	C250.1,266.7,284.1,295.5,190,400z"/>
<path class="st2" d="M271.8,652.5c30.3,28.8,124.3,40.9,230,34.3c76.5-4.8,63-25.1,77.6-70.5c-139.5-5.3-119.1-10.4-211.3-34.1
	C302.7,565.2,332.8,586.8,271.8,652.5z"/>
<path class="st0" d="M189,400C165.6,130.1,482.5,207.8,656.1,76.1C815.1,326.1,313.7,311.7,189,400z"/>
<path class="st0" d="M661.3,347.2c52.8,275.1-284.8,198-389.5,307.3C88,422.2,432.4,501.3,661.3,347.2z"/>
<path class="st0" d="M376.4,813.9c24.9-59,206.6-8.2,204-198.7C447.8,721.1,269.1,668.7,376.4,813.9z"/>
</svg>
