<?xml version="1.0" encoding="utf-8"?>
<!-- Generator: Adobe Illustrator 22.0.1, SVG Export Plug-In . SVG Version: 6.00 Build 0)  -->
<svg version="1.1" id="Слой_1" xmlns="http://www.w3.org/2000/svg" xmlns:xlink="http://www.w3.org/1999/xlink" x="0px" y="0px"
	 viewBox="0 0 612 792" style="enable-background:new 0 0 612 792;" xml:space="preserve">
<style type="text/css">
	.st0{fill-rule:evenodd;clip-rule:evenodd;fill:#D24A47;}
	.st1{fill-rule:evenodd;clip-rule:evenodd;fill:#802F22;}
</style>
<path class="st0" d="M297.7,228.1c55.7-39.7,295.5-44.2,215.1-126.5C470.1,183.8,333.3,152,297.7,228.1z"/>
<path class="st0" d="M452.1,0C423.4,22,378,6.8,348.2,33.6c-28.4,25.6-47.2,75.9-52.7,127.9C519.7,125.2,489.6,74.1,452.1,0z
	 M324,136.7c2.4-22.6,10.5-44.5,22.8-55.6c12.9-11.7,32.5-5.1,44.9-14.6C408,98.7,421,120.9,324,136.7z"/>
<path class="st0" d="M231.1,174.7c15.2-42.6-21.7-137.3,75.4-139.6C258.6,70.2,298.8,131,231.1,174.7z"/>
<path class="st0" d="M177,231.7c1.6-47.5-70.8-126.3,32.7-165.3C170.3,119,234.6,163.3,177,231.7z"/>
<path class="st0" d="M147.2,332.9c-16.4-53.9-116.3-118.7-31-196.2C98.1,208.5,177,237.3,147.2,332.9z"/>
<path class="st0" d="M147.8,442.1C114,393-3.1,357.6,58.4,252.2C63,330.5,147.5,336.1,147.8,442.1z"/>
<path class="st0" d="M193.9,564.4c-46.7-40.9-165.7-62.6-150-170.4C71.9,470.8,157.8,463.4,193.9,564.4z"/>
<path class="st0" d="M253.1,653.6c-48-22.3-152.2-30.4-164.6-104.6C144.6,601,225.2,589.8,253.1,653.6z"/>
<path class="st0" d="M301.9,718.6c-30.4-8.7-86.6,1.3-111-49.7C232.7,697.5,272,677.3,301.9,718.6z"/>
<path class="st1" d="M218.3,399c33,32.3,134.5,43.9,249.8,36.4c83.5-5.4,67.3-21.9,83.1-73c-152.2-6-122.2-1.9-220.3-34.4
	C260.8,304.8,284.8,325.2,218.3,399z"/>
<path class="st0" d="M343.8,766.4c-20-1.6-54.4,10.2-74.6-16.3C298.2,761.8,321,746,343.8,766.4z"/>
<path class="st1" d="M278.7,579.7c21.4,20.3,87.8,28.9,162.5,24.2c54.1-3.4,44.5-17.7,54.8-49.8c-98.6-3.8-84.1-7.3-149.3-24.1
	C300.5,518.1,321.7,533.3,278.7,579.7z"/>
<path class="st0" d="M384.8,743.5c20.5-9.6,60.1-6,73.9-49.7C431.5,720.5,403,707.3,384.8,743.5z"/>
<path class="st0" d="M285.3,181.3c11.8-10.4-2.1-8.4-8-6.6C29.7,381.6,313.6,713,389.9,787.4c7,6.8,20.9,6.2,13.2-2.2
	C28.1,378,248.6,213.5,285.3,181.3z"/>
<path class="st0" d="M220.1,401.4c-16.5-190.6,207.3-135.8,330-228.8C662.5,349.1,308.2,339,220.1,401.4z"/>
<path class="st0" d="M553.8,364.1C591.1,558.4,352.6,504,278.7,581.2C148.8,417.1,392.1,472.9,553.8,364.1z"/>
<path class="st0" d="M352.6,693.8c17.6-41.7,146-5.8,144.2-140.4C403,628.2,276.7,591.2,352.6,693.8z"/>
</svg>
